<svg width="16" height="17" viewBox="0 0 16 17" fill="none" xmlns="http://www.w3.org/2000/svg">
<path d="M7.83332 0.0801697C3.71062 0.0801697 0.368042 3.74494 0.368042 8.26503C0.368042 12.7851 3.71062 16.4499 7.83332 16.4499C11.956 16.4499 15.2986 12.7851 15.2986 8.26503C15.2986 3.74494 11.956 0.0801697 7.83332 0.0801697ZM10.4343 5.53674H9.35872C8.68934 5.53674 8.45543 5.92416 8.45543 6.70854V7.58295H10.4175L10.1513 9.62917H8.45543V15.0516C8.25075 15.0735 8.04359 15.0857 7.83332 15.0857C7.40718 15.0857 6.99099 15.038 6.58911 14.9486V9.62917H4.72279V7.58295H6.58911V6.48414C6.58911 4.40382 7.51356 3.49053 9.0906 3.49053C9.84583 3.49053 10.2452 3.55191 10.4343 3.57988V5.53674Z" fill="#732282"/>
</svg>
