<svg width="16" height="17" viewBox="0 0 16 17" fill="none" xmlns="http://www.w3.org/2000/svg">
<path d="M7.83332 0.614685C3.71708 0.614685 0.368042 4.28654 0.368042 8.79954C0.368042 13.3125 3.71708 16.9844 7.83332 16.9844C11.9496 16.9844 15.2986 13.3125 15.2986 8.79954C15.2986 4.28654 11.9496 0.614685 7.83332 0.614685ZM5.91877 3.1331H9.74675C11.5413 3.1331 13.0016 4.73357 13.0016 6.70045V10.8974C13.0016 12.8649 11.5418 14.466 9.74787 14.466H5.91989C4.12536 14.466 2.66505 12.8655 2.66505 10.8986V6.70168C2.66505 4.73417 4.12481 3.1331 5.91877 3.1331ZM5.91877 4.39231C4.75821 4.39231 3.81355 5.42862 3.81355 6.70168V10.8986C3.81355 12.1711 4.75876 13.2068 5.91989 13.2068H9.74787C10.9084 13.2068 11.8531 12.1705 11.8531 10.8974V6.70045C11.8531 5.42802 10.9079 4.39231 9.74675 4.39231H5.91877ZM10.5139 5.44124C10.7252 5.44124 10.8964 5.62887 10.8964 5.86057C10.8964 6.09226 10.7252 6.28112 10.5139 6.28112C10.3026 6.28112 10.1303 6.09226 10.1303 5.86057C10.1303 5.62887 10.3026 5.44124 10.5139 5.44124ZM7.83332 5.65152C9.41653 5.65152 10.7046 7.06372 10.7046 8.79954C10.7046 10.5354 9.41653 11.9476 7.83332 11.9476C6.25011 11.9476 4.96206 10.5354 4.96206 8.79954C4.96206 7.06372 6.25011 5.65152 7.83332 5.65152ZM7.83332 6.91073C7.37642 6.91073 6.93823 7.10973 6.61515 7.46395C6.29207 7.81817 6.11056 8.2986 6.11056 8.79954C6.11056 9.30048 6.29207 9.78091 6.61515 10.1351C6.93823 10.4894 7.37642 10.6884 7.83332 10.6884C8.29022 10.6884 8.72841 10.4894 9.05149 10.1351C9.37457 9.78091 9.55608 9.30048 9.55608 8.79954C9.55608 8.2986 9.37457 7.81817 9.05149 7.46395C8.72841 7.10973 8.29022 6.91073 7.83332 6.91073Z" fill="#732282"/>
</svg>
