<svg width="223" height="241" viewBox="0 0 223 241" fill="none" xmlns="http://www.w3.org/2000/svg">
<path d="M130.969 200V76.3636H217.901V103.409H164.534V124.659H212.588V151.705H164.534V200H130.969Z" fill="#732282"/>
<path d="M0 126.031L123.636 126.031L123.636 39.0994L96.5909 39.0994L96.5909 92.4659H75.3409L75.3409 44.4119H48.2955L48.2955 92.4659H0V126.031Z" fill="#732282"/>
<path d="M153 62.6364C149.212 62.6364 145.97 61.8864 143.273 60.3864C140.576 58.8712 138.508 56.7652 137.068 54.0682C135.629 51.3561 134.909 48.2121 134.909 44.6364C134.909 41.0606 135.629 37.9242 137.068 35.2273C138.508 32.5152 140.576 30.4091 143.273 28.9091C145.97 27.3939 149.212 26.6364 153 26.6364C156.788 26.6364 160.03 27.3939 162.727 28.9091C165.424 30.4091 167.492 32.5152 168.932 35.2273C170.371 37.9242 171.091 41.0606 171.091 44.6364C171.091 48.2121 170.371 51.3561 168.932 54.0682C167.492 56.7652 165.424 58.8712 162.727 60.3864C160.03 61.8864 156.788 62.6364 153 62.6364ZM153.091 53.3636C154.152 53.3636 155.068 53.0076 155.841 52.2955C156.614 51.5833 157.212 50.5682 157.636 49.25C158.061 47.9318 158.273 46.3636 158.273 44.5455C158.273 42.7121 158.061 41.1439 157.636 39.8409C157.212 38.5227 156.614 37.5076 155.841 36.7955C155.068 36.0833 154.152 35.7273 153.091 35.7273C151.97 35.7273 151.008 36.0833 150.205 36.7955C149.402 37.5076 148.788 38.5227 148.364 39.8409C147.939 41.1439 147.727 42.7121 147.727 44.5455C147.727 46.3636 147.939 47.9318 148.364 49.25C148.788 50.5682 149.402 51.5833 150.205 52.2955C151.008 53.0076 151.97 53.3636 153.091 53.3636ZM193 62.6364C189.212 62.6364 185.97 61.8864 183.273 60.3864C180.576 58.8712 178.508 56.7652 177.068 54.0682C175.629 51.3561 174.909 48.2121 174.909 44.6364C174.909 41.0606 175.629 37.9242 177.068 35.2273C178.508 32.5152 180.576 30.4091 183.273 28.9091C185.97 27.3939 189.212 26.6364 193 26.6364C196.788 26.6364 200.03 27.3939 202.727 28.9091C205.424 30.4091 207.492 32.5152 208.932 35.2273C210.371 37.9242 211.091 41.0606 211.091 44.6364C211.091 48.2121 210.371 51.3561 208.932 54.0682C207.492 56.7652 205.424 58.8712 202.727 60.3864C200.03 61.8864 196.788 62.6364 193 62.6364ZM193.091 53.3636C194.152 53.3636 195.068 53.0076 195.841 52.2955C196.614 51.5833 197.212 50.5682 197.636 49.25C198.061 47.9318 198.273 46.3636 198.273 44.5455C198.273 42.7121 198.061 41.1439 197.636 39.8409C197.212 38.5227 196.614 37.5076 195.841 36.7955C195.068 36.0833 194.152 35.7273 193.091 35.7273C191.97 35.7273 191.008 36.0833 190.205 36.7955C189.402 37.5076 188.788 38.5227 188.364 39.8409C187.939 41.1439 187.727 42.7121 187.727 44.5455C187.727 46.3636 187.939 47.9318 188.364 49.25C188.788 50.5682 189.402 51.5833 190.205 52.2955C191.008 53.0076 191.97 53.3636 193.091 53.3636Z" fill="#732282"/>
<path d="M28.9091 179.636C25.1818 179.636 21.9697 178.924 19.2727 177.5C16.5909 176.061 14.5227 174 13.0682 171.318C11.6288 168.621 10.9091 165.394 10.9091 161.636C10.9091 158.03 11.6364 154.879 13.0909 152.182C14.5455 149.485 16.5985 147.386 19.25 145.886C21.9015 144.386 25.0303 143.636 28.6364 143.636C31.2727 143.636 33.6591 144.045 35.7955 144.864C37.9318 145.682 39.7576 146.871 41.2727 148.432C42.7879 149.977 43.9545 151.856 44.7727 154.068C45.5909 156.28 46 158.773 46 161.545V164.455H14.8182L14.8182 157.545H34.4545C34.4394 156.545 34.1818 155.667 33.6818 154.909C33.197 154.136 32.5379 153.538 31.7045 153.114C30.8864 152.674 29.9545 152.455 28.9091 152.455C27.8939 152.455 26.9621 152.674 26.1136 153.114C25.2652 153.538 24.5833 154.129 24.0682 154.886C23.5682 155.644 23.303 156.53 23.2727 157.545V165C23.2727 166.121 23.5076 167.121 23.9773 168C24.447 168.879 25.1212 169.568 26 170.068C26.8788 170.568 27.9394 170.818 29.1818 170.818C30.0455 170.818 30.8333 170.697 31.5455 170.455C32.2727 170.212 32.8939 169.864 33.4091 169.409C33.9242 168.939 34.303 168.379 34.5455 167.727H46C45.6061 170.152 44.6742 172.258 43.2045 174.045C41.7348 175.818 39.7879 177.197 37.3636 178.182C34.9545 179.152 32.1364 179.636 28.9091 179.636ZM83.0284 155.455H71.483C71.4223 154.742 71.1723 154.129 70.733 153.614C70.2936 153.098 69.7254 152.705 69.0284 152.432C68.3466 152.144 67.589 152 66.7557 152C65.6799 152 64.7557 152.197 63.983 152.591C63.2102 152.985 62.8314 153.545 62.8466 154.273C62.8314 154.788 63.0511 155.265 63.5057 155.705C63.9754 156.144 64.8769 156.485 66.2102 156.727L73.3011 158C76.8769 158.652 79.536 159.75 81.2784 161.295C83.036 162.826 83.9223 164.879 83.9375 167.455C83.9223 169.939 83.1799 172.098 81.7102 173.932C80.2557 175.75 78.2633 177.159 75.733 178.159C73.2178 179.144 70.3466 179.636 67.1193 179.636C61.786 179.636 57.6117 178.545 54.5966 176.364C51.5966 174.182 49.9223 171.303 49.5739 167.727H62.0284C62.1951 168.833 62.7405 169.689 63.6648 170.295C64.6042 170.886 65.786 171.182 67.2102 171.182C68.3617 171.182 69.3087 170.985 70.0511 170.591C70.8087 170.197 71.1951 169.636 71.2102 168.909C71.1951 168.242 70.8617 167.712 70.2102 167.318C69.5739 166.924 68.5739 166.606 67.2102 166.364L61.0284 165.273C57.4678 164.652 54.8011 163.47 53.0284 161.727C51.2557 159.985 50.3769 157.742 50.392 155C50.3769 152.576 51.0133 150.523 52.3011 148.841C53.6042 147.144 55.4602 145.856 57.8693 144.977C60.2936 144.083 63.1648 143.636 66.483 143.636C71.5284 143.636 75.5057 144.682 78.4148 146.773C81.339 148.864 82.8769 151.758 83.0284 155.455ZM109.562 144.091V153.182H86.5625V144.091H109.562ZM91.017 135.727H103.562V167.773C103.562 168.258 103.646 168.667 103.812 169C103.979 169.318 104.237 169.561 104.585 169.727C104.934 169.879 105.381 169.955 105.926 169.955C106.305 169.955 106.744 169.909 107.244 169.818C107.759 169.727 108.138 169.652 108.381 169.591L110.199 178.409C109.638 178.576 108.835 178.78 107.79 179.023C106.759 179.265 105.532 179.424 104.108 179.5C101.229 179.652 98.8125 179.356 96.858 178.614C94.9034 177.856 93.4337 176.667 92.4489 175.045C91.464 173.424 90.9867 171.394 91.017 168.955V135.727Z" fill="#732282"/>
</svg>
