<svg width="16" height="17" viewBox="0 0 16 17" fill="none" xmlns="http://www.w3.org/2000/svg">
<path d="M7.83332 0.545654C3.71062 0.545654 0.368042 4.21042 0.368042 8.73051C0.368042 13.2506 3.71062 16.9154 7.83332 16.9154C11.956 16.9154 15.2986 13.2506 15.2986 8.73051C15.2986 4.21042 11.956 0.545654 7.83332 0.545654ZM11.8546 7.0492C11.8583 7.13992 11.8602 7.22995 11.8602 7.31999C11.8602 10.0947 9.9348 13.2922 6.41305 13.2922C5.33121 13.2922 4.32526 12.945 3.47857 12.3489C3.6285 12.3687 3.78092 12.3775 3.93582 12.3775C4.83352 12.3775 5.65844 12.0426 6.31289 11.4786C5.47491 11.4615 4.76758 10.8545 4.52434 10.021C4.64129 10.0455 4.76136 10.0585 4.88454 10.0585C5.05935 10.0585 5.22918 10.0326 5.38906 9.98484C4.51314 9.7925 3.85308 8.944 3.85308 7.92703C3.85308 7.91816 3.85308 7.9093 3.85308 7.90043C4.11126 8.05799 4.40614 8.15211 4.7203 8.16303C4.20706 7.78721 3.86864 7.14401 3.86864 6.41624C3.86864 6.03087 3.96257 5.67006 4.12743 5.36108C5.07179 6.6311 6.48273 7.46731 8.07345 7.55462C8.0411 7.40115 8.02431 7.24087 8.02431 7.07649C8.02431 5.91765 8.88157 4.97707 9.93853 4.97707C10.4891 4.97707 10.9868 5.23217 11.3358 5.64005C11.7719 5.54524 12.1818 5.37131 12.552 5.13054C12.4089 5.62095 12.1053 6.03155 11.7097 6.29211C12.0966 6.24163 12.4655 6.12909 12.8096 5.96198C12.5539 6.3835 12.2297 6.7525 11.8546 7.0492Z" fill="#732282"/>
</svg>
